<?xml version="1.0" encoding="UTF-8" standalone="no"?>
<!-- Uploaded to: SVG Repo, www.svgrepo.com, Generator: SVG Repo Mixer Tools -->

<svg
   fill="#000000"
   version="1.1"
   id="Capa_1"
   width="800px"
   height="800px"
   viewBox="0 0 495.398 495.398"
   xml:space="preserve"
   sodipodi:docname="home-icon.svg"
   inkscape:version="1.4.3 (1:1.4.3+202512261035+0d15f75042)"
   xmlns:inkscape="http://www.inkscape.org/namespaces/inkscape"
   xmlns:sodipodi="http://sodipodi.sourceforge.net/DTD/sodipodi-0.dtd"
   xmlns="http://www.w3.org/2000/svg"
   xmlns:svg="http://www.w3.org/2000/svg"><defs
   id="defs4" /><sodipodi:namedview
   id="namedview4"
   pagecolor="#505050"
   bordercolor="#eeeeee"
   borderopacity="1"
   inkscape:showpageshadow="0"
   inkscape:pageopacity="0"
   inkscape:pagecheckerboard="0"
   inkscape:deskcolor="#505050"
   inkscape:zoom="1.045"
   inkscape:cx="400.47847"
   inkscape:cy="400"
   inkscape:window-width="1914"
   inkscape:window-height="1049"
   inkscape:window-x="0"
   inkscape:window-y="25"
   inkscape:window-maximized="1"
   inkscape:current-layer="Capa_1" />
<g
   id="g4"
   transform="matrix(0.96017809,0,0,0.96017809,6.0983382,35.641128)">
	<g
   id="g3">
		<g
   id="g2">
			<path
   d="m 487.083,225.514 -75.08,-75.08 v -86.73 c 0,-15.682 -12.708,-28.391 -28.413,-28.391 -15.669,0 -28.377,12.709 -28.377,28.391 V 93.645 L 299.31,37.74 C 271.671,10.116 223.616,10.165 196.04,37.79 L 8.312,225.514 c -11.082,11.104 -11.082,29.071 0,40.158 11.087,11.101 29.089,11.101 40.172,0 L 236.194,77.943 c 6.115,-6.083 16.893,-6.083 22.976,-0.018 l 187.742,187.747 c 5.567,5.551 12.825,8.312 20.081,8.312 7.271,0 14.541,-2.764 20.091,-8.312 11.086,-11.086 11.086,-29.053 -10e-4,-40.158 z"
   id="path1" />
			<path
   d="m 257.561,131.836 c -5.454,-5.451 -14.285,-5.451 -19.723,0 L 72.712,296.913 c -2.607,2.606 -4.085,6.164 -4.085,9.877 v 120.401 c 0,28.253 22.908,51.16 51.16,51.16 h 81.754 v -126.61 h 92.299 v 126.61 h 81.755 c 28.251,0 51.159,-22.907 51.159,-51.159 V 306.79 c 0,-3.713 -1.465,-7.271 -4.085,-9.877 z"
   id="path2" />
		</g>
	</g>
</g>
</svg>
